<?xml version="1.0" encoding="UTF-8"?>
<svg xmlns="http://www.w3.org/2000/svg" viewBox="0 0 512 512" width="512px" height="512px">
<g id="surface5897687">
<path style=" stroke:none;fill-rule:nonzero;fill:rgb(18.039216%,80.000001%,44.313726%);fill-opacity:1;" d="M 251.90625 16 C 198.40625 15.03125 146.65625 32.375 104.125 66 C 55.5 104.46875 24.75 159.5 17.5625 221.0625 C 10.375 282.625 27.59375 343.28125 66 391.875 C 104.4375 440.5 159.5 471.25 221.0625 478.4375 C 230.21875 479.5 239.375 480.03125 248.46875 480.03125 C 300.40625 480.03125 350.5 462.6875 391.875 430 C 440.5 391.53125 471.21875 336.46875 478.40625 274.9375 C 485.625 213.375 468.40625 152.71875 430 104.125 C 391.53125 55.5 336.5 24.75 274.9375 17.5625 C 267.25 16.65625 259.5625 16.15625 251.90625 16 Z M 247.5625 31.96875 C 256.03125 31.96875 264.5625 32.46875 273.09375 33.46875 C 391.375 47.3125 476.375 154.8125 462.53125 273.09375 C 455.84375 330.40625 427.21875 381.65625 381.96875 417.4375 C 336.6875 453.21875 280.1875 469.28125 222.90625 462.53125 C 104.625 448.71875 19.625 341.1875 33.46875 222.90625 C 40.15625 165.59375 68.78125 114.34375 114.03125 78.5625 C 152.5625 48.09375 199.1875 31.96875 247.5625 31.96875 Z M 273 72.9375 C 271.96875 72.78125 270.90625 72.84375 269.84375 73.125 C 265.5625 74.21875 262.96875 78.5625 264.03125 82.84375 C 270.5 108.28125 257.71875 119.53125 234.59375 137.28125 C 220.96875 147.75 205.53125 159.625 196.375 177.6875 C 177.75 217.9375 215.875 245.78125 228.375 254.9375 C 229.8125 255.96875 231.46875 256.5 233.09375 256.5 C 235.5625 256.5 238 255.34375 239.5625 253.21875 C 242.15625 249.625 241.40625 244.625 237.84375 242.03125 C 210.125 221.78125 201.8125 204 210.75 184.65625 C 218.15625 170.09375 231.46875 159.875 244.34375 150 C 265.21875 133.96875 288.90625 115.78125 279.53125 78.90625 C 278.71875 75.6875 276.0625 73.4375 273 72.9375 Z M 312.5 137.34375 C 311.5 137.1875 310.40625 137.21875 309.34375 137.5 C 307.15625 138.03125 255.4375 151.25 238.5 180.78125 C 232.75 190.78125 231.46875 201.4375 234.65625 212.46875 C 235.6875 215.96875 238.875 218.25 242.34375 218.25 C 243.09375 218.25 243.84375 218.125 244.59375 217.90625 C 248.8125 216.6875 251.25 212.25 250.03125 208 C 248.0625 201.21875 248.8125 194.90625 252.375 188.75 C 263.59375 169.15625 300.09375 156.3125 313.21875 153 C 317.5 151.9375 320.125 147.59375 319.03125 143.3125 C 318.25 140.09375 315.59375 137.8125 312.5 137.34375 Z M 112.875 137.84375 C 110.84375 138.15625 108.90625 139.21875 107.59375 140.96875 C 104.96875 144.5 105.6875 149.53125 109.25 152.15625 L 122.0625 161.71875 C 123.5 162.78125 125.1875 163.28125 126.84375 163.28125 C 129.28125 163.28125 131.6875 162.1875 133.25 160.09375 C 135.875 156.5625 135.15625 151.53125 131.625 148.875 L 118.78125 139.34375 C 117 138.03125 114.875 137.53125 112.875 137.84375 Z M 398.78125 155.25 C 397.78125 155.375 396.75 155.71875 395.78125 156.28125 C 392 158.5625 390.75 163.46875 393 167.25 C 396.125 172.5 399 177.96875 401.5 183.5 C 402.875 186.4375 405.78125 188.1875 408.8125 188.1875 C 409.9375 188.1875 411.0625 187.96875 412.125 187.46875 C 416.15625 185.625 417.9375 180.90625 416.09375 176.875 C 413.3125 170.78125 410.1875 164.8125 406.75 159.09375 C 405.0625 156.21875 401.875 154.8125 398.78125 155.25 Z M 91.96875 176.9375 C 88.84375 177 85.90625 178.90625 84.71875 182 C 83.0625 186.125 85.0625 190.75 89.15625 192.375 L 104.03125 198.28125 C 105 198.6875 106 198.875 107 198.875 C 110.15625 198.875 113.1875 196.96875 114.4375 193.8125 C 116.0625 189.6875 114.0625 185.0625 109.96875 183.40625 L 95.09375 177.5 C 94.0625 177.09375 93 176.90625 91.96875 176.9375 Z M 421.34375 205.21875 C 420.3125 205.03125 419.21875 205.09375 418.15625 205.34375 C 413.875 206.34375 411.1875 210.625 412.1875 214.9375 C 418.78125 243.3125 417.90625 273 409.71875 300.8125 C 408.46875 305.03125 410.875 309.5 415.125 310.75 C 415.875 310.96875 416.625 311.09375 417.375 311.09375 C 420.84375 311.09375 424.03125 308.84375 425.03125 305.34375 C 434.03125 274.875 434.96875 242.375 427.75 211.3125 C 427 208.09375 424.40625 205.75 421.34375 205.21875 Z M 82.09375 220.53125 C 77.6875 220.03125 73.71875 223.15625 73.1875 227.5625 C 72.6875 231.9375 75.8125 235.90625 80.21875 236.4375 L 96.09375 238.28125 C 96.40625 238.34375 96.75 238.375 97.03125 238.375 C 101.03125 238.375 104.5 235.34375 104.96875 231.28125 C 105.46875 226.875 102.34375 222.90625 97.96875 222.40625 Z M 255.46875 223.625 C 253.4375 223.46875 251.34375 224.09375 249.65625 225.53125 C 246.3125 228.4375 245.96875 233.5 248.875 236.84375 C 253.6875 242.375 254.03125 247.625 250 253.78125 C 247.59375 257.5 248.625 262.4375 252.3125 264.875 C 253.65625 265.75 255.1875 266.15625 256.6875 266.15625 C 259.28125 266.15625 261.875 264.90625 263.375 262.5625 C 271.3125 250.46875 270.40625 237.25 260.9375 226.34375 C 259.5 224.65625 257.5 223.75 255.46875 223.625 Z M 335.28125 245.84375 C 330.09375 245.6875 324.71875 246.53125 319.46875 248.375 C 315.28125 249.84375 313.09375 254.40625 314.53125 258.5625 C 316 262.71875 320.59375 264.9375 324.75 263.46875 C 335 259.84375 343.21875 262.65625 347.46875 266.46875 C 349.65625 268.4375 353.125 272.6875 351.625 279.125 C 349.125 290.1875 333.9375 300.6875 311.09375 307.21875 C 306.84375 308.40625 304.375 312.84375 305.59375 317.09375 C 306.59375 320.59375 309.8125 322.875 313.28125 322.875 C 314 322.875 314.75 322.78125 315.5 322.59375 C 355.15625 311.28125 364.9375 292.75 367.25 282.75 C 369.65625 272.3125 366.25 261.78125 358.125 254.53125 C 352 249.0625 343.90625 246.09375 335.28125 245.84375 Z M 204.71875 246.375 C 203.25 246.5625 173.5 246.46875 150.875 259.3125 C 140.75 265.5625 143 273.0625 143.9375 275.21875 C 146.5 281.125 156.6875 285.15625 171.125 287.5 C 165.34375 292.65625 165.03125 297.96875 166.34375 302.15625 C 168.21875 308.21875 175.1875 313.0625 185.40625 316.5 C 181.6875 319.15625 179.40625 322.21875 178.65625 325.84375 C 178.03125 328.75 178 334.5 184.53125 339.875 C 193.125 346.90625 213.1875 352.125 236.8125 352.125 C 255.5625 352.125 276.59375 348.84375 295.875 340.5625 C 299.9375 338.8125 301.84375 334.125 300.09375 330.0625 C 298.34375 326 293.625 324.09375 289.59375 325.875 C 250.5625 342.5625 206.875 335.5 196.125 328.65625 C 197.59375 327.90625 200.03125 326.875 203.875 325.8125 C 204 325.78125 213.25 322.96875 222.96875 322.90625 C 223.375 322.90625 223.75 322.71875 224.15625 322.65625 C 226.90625 322.75 229.6875 322.84375 232.53125 322.84375 C 253.625 322.84375 276.875 319.96875 297.90625 313.8125 C 302.15625 312.5625 304.59375 308.125 303.34375 303.875 C 302.09375 299.65625 297.65625 297.21875 293.40625 298.46875 C 242.40625 313.375 193.53125 305.28125 183.03125 298.40625 C 184.625 297.34375 187.59375 295.75 193 293.9375 C 196.1875 292.9375 205.90625 290.375 212.96875 290.25 C 213 290.25 213.03125 290.25 213.09375 290.25 C 244.96875 290.09375 280.875 286.125 304.75 279.71875 C 309.03125 278.5625 311.5625 274.1875 310.40625 269.90625 C 309.28125 265.65625 304.875 263.09375 300.625 264.25 C 272.84375 271.71875 240.34375 274.40625 213.28125 274.375 C 213.09375 274.375 212.9375 274.28125 212.75 274.25 C 212.15625 274.28125 211.5 274.34375 210.875 274.375 C 190.71875 274.25 173.8125 272.59375 164.59375 270.3125 C 182.53125 262.46875 204.4375 262.375 204.6875 262.375 C 209.09375 262.375 212.6875 258.8125 212.6875 254.375 C 212.6875 249.96875 209.125 246.40625 204.71875 246.375 Z M 96.46875 263.15625 L 80.625 265.46875 C 76.25 266.09375 73.25 270.15625 73.875 274.53125 C 74.46875 278.5 77.875 281.375 81.78125 281.375 C 82.15625 281.375 82.53125 281.34375 82.9375 281.28125 L 98.78125 278.96875 C 103.15625 278.34375 106.15625 274.28125 105.53125 269.90625 C 104.875 265.53125 100.78125 262.4375 96.46875 263.15625 Z M 108.65625 302.25 C 107.625 302.25 106.5625 302.46875 105.5625 302.90625 L 90.875 309.25 C 86.8125 311 84.9375 315.6875 86.6875 319.75 C 88 322.78125 90.9375 324.59375 94.03125 324.59375 C 95.09375 324.59375 96.15625 324.375 97.21875 323.90625 L 111.90625 317.59375 C 115.96875 315.8125 117.84375 311.125 116.09375 307.09375 C 114.75 304.03125 111.78125 302.21875 108.65625 302.25 Z M 168 332.03125 C 154.8125 331.03125 137.09375 336.53125 128.625 341.59375 C 118.78125 347.5 117.375 353.9375 117.90625 358.28125 C 119.25 368.90625 133 373.03125 137.875 374.5 C 166.78125 381.75 197.28125 384.78125 225.90625 384.78125 C 289.40625 384.8125 343.46875 369.84375 349.375 352.875 C 351.25 347.4375 349.71875 340.03125 339.78125 335.53125 C 335.78125 333.71875 331.03125 335.5 329.21875 339.53125 C 327.5625 343.21875 328.90625 347.46875 332.1875 349.59375 C 315.9375 362 228.5 380.75 142.125 359.09375 C 138.59375 358 136.40625 357.03125 135.125 356.3125 C 141.84375 350.9375 164.40625 345.5 169.96875 348.53125 C 173.5625 351.03125 178.53125 350.15625 181.0625 346.59375 C 183.59375 342.96875 182.71875 337.96875 179.125 335.40625 C 176.25 333.40625 172.375 332.375 168 332.03125 Z M 349.75 361.375 C 345.1875 361.09375 341.5 364.34375 341.125 368.75 C 340.1875 381.0625 286.15625 395.53125 203.625 390.25 C 199.25 390.15625 195.4375 393.34375 195.125 397.75 C 194.875 402.15625 198.1875 405.9375 202.625 406.25 C 204.40625 406.34375 217.75 407.15625 235.96875 407.15625 C 280.6875 407.15625 354.59375 402.25 357.09375 370 C 357.4375 365.5625 354.15625 361.71875 349.75 361.375 Z M 349.75 361.375 "/>
</g>
</svg>
